<svg width="128" height="128" viewBox="0 0 128 128" fill="none" xmlns="http://www.w3.org/2000/svg">
<rect width="128" height="128" rx="16" fill="#A9FBAF"/>
<path d="M42.6665 63.9998V74.6665C42.6665 80.5332 44.7554 85.5554 48.9332 89.7332C53.1109 93.9109 58.1332 95.9998 63.9998 95.9998C69.8665 95.9998 74.8887 93.9109 79.0665 89.7332C83.2443 85.5554 85.3332 80.5332 85.3332 74.6665V63.9998H42.6665ZM63.9998 87.9998C60.2665 87.9998 57.1109 86.7109 54.5332 84.1332C51.9554 81.5554 50.6665 78.3998 50.6665 74.6665V71.9998H77.3332V74.6665C77.3332 78.3998 76.0443 81.5554 73.4665 84.1332C70.8887 86.7109 67.7332 87.9998 63.9998 87.9998ZM45.3332 37.3332C41.9554 37.3332 38.9563 38.5563 36.3358 41.0025C33.7154 43.4487 31.8701 46.8034 30.7998 51.0665L38.5332 52.9332C39.0665 50.6221 39.9554 48.7785 41.1998 47.4025C42.4443 46.0265 43.8221 45.3367 45.3332 45.3332C46.8443 45.3332 48.2221 46.0229 49.4665 47.4025C50.7109 48.7821 51.5998 50.6256 52.1332 52.9332L59.8665 51.0665C58.7998 46.7998 56.9563 43.4452 54.3358 41.0025C51.7154 38.5598 48.7145 37.3367 45.3332 37.3332ZM82.6665 37.3332C79.2887 37.3332 76.2896 38.5563 73.6692 41.0025C71.0487 43.4487 69.2034 46.8034 68.1332 51.0665L75.8665 52.9332C76.3998 50.6221 77.2887 48.7785 78.5332 47.4025C79.7776 46.0265 81.1554 45.3367 82.6665 45.3332C84.1776 45.3332 85.5554 46.0229 86.7998 47.4025C88.0443 48.7821 88.9332 50.6256 89.4665 52.9332L97.1998 51.0665C96.1332 46.7998 94.2896 43.4452 91.6692 41.0025C89.0487 38.5598 86.0478 37.3367 82.6665 37.3332ZM63.9998 117.333C56.6221 117.333 49.6887 115.932 43.1998 113.13C36.7109 110.329 31.0665 106.53 26.2665 101.733C21.4665 96.9332 17.6674 91.2887 14.8692 84.7998C12.0709 78.3109 10.6701 71.3776 10.6665 63.9998C10.6665 56.6221 12.0674 49.6887 14.8692 43.1998C17.6709 36.7109 21.4701 31.0665 26.2665 26.2665C31.0665 21.4665 36.7109 17.6674 43.1998 14.8692C49.6887 12.0709 56.6221 10.6701 63.9998 10.6665C71.3776 10.6665 78.3109 12.0674 84.7998 14.8692C91.2887 17.6709 96.9332 21.4701 101.733 26.2665C106.533 31.0665 110.334 36.7109 113.136 43.1998C115.938 49.6887 117.337 56.6221 117.333 63.9998C117.333 71.3776 115.932 78.3109 113.13 84.7998C110.329 91.2887 106.53 96.9332 101.733 101.733C96.9332 106.533 91.2887 110.334 84.7998 113.136C78.3109 115.938 71.3776 117.337 63.9998 117.333ZM63.9998 106.667C75.9109 106.667 85.9998 102.533 94.2665 94.2665C102.533 85.9998 106.667 75.9109 106.667 63.9998C106.667 52.0887 102.533 41.9998 94.2665 33.7332C85.9998 25.4665 75.9109 21.3332 63.9998 21.3332C52.0887 21.3332 41.9998 25.4665 33.7332 33.7332C25.4665 41.9998 21.3332 52.0887 21.3332 63.9998C21.3332 75.9109 25.4665 85.9998 33.7332 94.2665C41.9998 102.533 52.0887 106.667 63.9998 106.667Z" fill="#002108"/>
</svg>
